<mxfile host="app.diagrams.net" agent="Mozilla/5.0 (Windows NT 10.0; Win64; x64) AppleWebKit/537.36 (KHTML, like Gecko) Chrome/130.0.0.0 Safari/537.36" version="24.8.4">
  <diagram id="C5RBs43oDa-KdzZeNtuy" name="Page-1">
    <mxGraphModel dx="880" dy="468" grid="1" gridSize="10" guides="1" tooltips="1" connect="1" arrows="1" fold="1" page="1" pageScale="1" pageWidth="827" pageHeight="1169" math="0" shadow="0">
      <root>
        <mxCell id="WIyWlLk6GJQsqaUBKTNV-0" />
        <mxCell id="WIyWlLk6GJQsqaUBKTNV-1" parent="WIyWlLk6GJQsqaUBKTNV-0" />
        <mxCell id="wV_DushYCUdX9UCgWvIV-2" value="" style="edgeStyle=orthogonalEdgeStyle;rounded=0;orthogonalLoop=1;jettySize=auto;html=1;" edge="1" parent="WIyWlLk6GJQsqaUBKTNV-1" source="wV_DushYCUdX9UCgWvIV-0" target="wV_DushYCUdX9UCgWvIV-1">
          <mxGeometry relative="1" as="geometry" />
        </mxCell>
        <mxCell id="wV_DushYCUdX9UCgWvIV-0" value="INICIO" style="ellipse;whiteSpace=wrap;html=1;" vertex="1" parent="WIyWlLk6GJQsqaUBKTNV-1">
          <mxGeometry x="285" y="120" width="120" height="80" as="geometry" />
        </mxCell>
        <mxCell id="wV_DushYCUdX9UCgWvIV-4" value="" style="edgeStyle=orthogonalEdgeStyle;rounded=0;orthogonalLoop=1;jettySize=auto;html=1;" edge="1" parent="WIyWlLk6GJQsqaUBKTNV-1" source="wV_DushYCUdX9UCgWvIV-1" target="wV_DushYCUdX9UCgWvIV-3">
          <mxGeometry relative="1" as="geometry" />
        </mxCell>
        <mxCell id="wV_DushYCUdX9UCgWvIV-1" value="MOSTRAR MSJE:&quot;POR FAVOR INGRESE EL RADIO DEL CIRCULO" style="shape=parallelogram;perimeter=parallelogramPerimeter;whiteSpace=wrap;html=1;fixedSize=1;fillColor=#f8cecc;strokeColor=#b85450;" vertex="1" parent="WIyWlLk6GJQsqaUBKTNV-1">
          <mxGeometry x="250" y="230" width="190" height="110" as="geometry" />
        </mxCell>
        <mxCell id="wV_DushYCUdX9UCgWvIV-6" value="" style="edgeStyle=orthogonalEdgeStyle;rounded=0;orthogonalLoop=1;jettySize=auto;html=1;" edge="1" parent="WIyWlLk6GJQsqaUBKTNV-1" source="wV_DushYCUdX9UCgWvIV-3" target="wV_DushYCUdX9UCgWvIV-5">
          <mxGeometry relative="1" as="geometry" />
        </mxCell>
        <mxCell id="wV_DushYCUdX9UCgWvIV-3" value="DEFINIR Y ASIGNAR A LA VARIABLE AREA EL RESULTADO &lt;font style=&quot;font-size: 12px;&quot;&gt;DE&amp;nbsp;&lt;span style=&quot;color: rgb(32, 33, 34); font-family: sans-serif; text-align: start; background-color: rgb(255, 255, 255);&quot;&gt;&lt;font style=&quot;font-size: 12px;&quot;&gt;Ï€**RADIO^2&lt;/font&gt;&lt;/span&gt;&lt;/font&gt;" style="rounded=1;whiteSpace=wrap;html=1;fillColor=#e1d5e7;strokeColor=#9673a6;" vertex="1" parent="WIyWlLk6GJQsqaUBKTNV-1">
          <mxGeometry x="270" y="360" width="140" height="70" as="geometry" />
        </mxCell>
        <mxCell id="wV_DushYCUdX9UCgWvIV-8" value="" style="edgeStyle=orthogonalEdgeStyle;rounded=0;orthogonalLoop=1;jettySize=auto;html=1;" edge="1" parent="WIyWlLk6GJQsqaUBKTNV-1" source="wV_DushYCUdX9UCgWvIV-5" target="wV_DushYCUdX9UCgWvIV-7">
          <mxGeometry relative="1" as="geometry" />
        </mxCell>
        <mxCell id="wV_DushYCUdX9UCgWvIV-5" value="MOSTRAS MSJE: &quot;EL AREA DEL CIRCULO CON RADIO&quot;, RADIO &quot;ES&quot;, AREA" style="shape=parallelogram;perimeter=parallelogramPerimeter;whiteSpace=wrap;html=1;fixedSize=1;rounded=1;fillColor=#f8cecc;strokeColor=#b85450;" vertex="1" parent="WIyWlLk6GJQsqaUBKTNV-1">
          <mxGeometry x="250" y="470" width="180" height="110" as="geometry" />
        </mxCell>
        <mxCell id="wV_DushYCUdX9UCgWvIV-7" value="FIN" style="ellipse;whiteSpace=wrap;html=1;rounded=1;" vertex="1" parent="WIyWlLk6GJQsqaUBKTNV-1">
          <mxGeometry x="290" y="630" width="80" height="80" as="geometry" />
        </mxCell>
      </root>
    </mxGraphModel>
  </diagram>
</mxfile>
